PathFileType	4	(X/Y/Z)	Patient4_TMGait_0pt4_01_left_19.trc.trc
DataRate	CameraRate	NumFrames	NumMarkers	Units	OrigDataRate	OrigDataStartFrame	OrigNumFrames
608.695652173912	608.695652173912	5	33	mm	608.695652173912	18	       141
Frame#	Time	Sacral			L.Shoulder			Chest			R.Shoulder			Neck			R.ASIS			L.ASIS			R.Thigh.Superior			R.Thigh.Lateral			R.Thigh.Inferior			R.Patella			L.Thigh.Superior			L.Thigh.Lateral			L.Thigh.Inferior			L.Patella			L.Shank.Superior			L.Shank.Lateral			L.Shank.Inferior			R.Shank.Superior			R.Shank.Lateral			R.Shank.Inferior			R.Heel			R.Midfoot.Superior			R.Midfoot.Lateral			R.Toe			L.Heel			L.Midfoot.Lateral			L.Midfoot.Superior			L.Toe			L.Elbow			L.Wrist			R.Elbow			R.Wrist			
		X1	Y1	Z1	X2	Y2	Z2	X3	Y3	Z3	X4	Y4	Z4	X5	Y5	Z5	X6	Y6	Z6	X7	Y7	Z7	X8	Y8	Z8	X9	Y9	Z9	X10	Y10	Z10	X11	Y11	Z11	X12	Y12	Z12	X13	Y13	Z13	X14	Y14	Z14	X15	Y15	Z15	X16	Y16	Z16	X17	Y17	Z17	X18	Y18	Z18	X19	Y19	Z19	X20	Y20	Z20	X21	Y21	Z21	X22	Y22	Z22	X23	Y23	Z23	X24	Y24	Z24	X25	Y25	Z25	X26	Y26	Z26	X27	Y27	Z27	X28	Y28	Z28	X29	Y29	Z29	X30	Y30	Z30	X31	Y31	Z31	X32	Y32	Z32	X33	Y33	Z33	

18	24.007928571429	565.130316666718	1012.519970681621	470.918221197097	753.125177364038	1430.632627187179	271.229736802196	870.507052353380	1355.572771159200	419.306220739368	813.729562539294	1436.648032528597	601.479347184537	771.216959881043	1492.712253171848	426.757262622332	802.935583750609	938.614917830784	564.408462100405	761.232371768547	962.882647122645	294.208893826807	828.596883454785	734.249035837364	533.741240781080	743.294877302775	630.122438230077	597.202672224044	811.752670445019	574.573565930948	511.937732800347	805.342844052324	489.371925869181	516.525703014102	848.914593790852	788.792497861529	320.459301424970	810.898206267520	660.911716547512	241.802848906997	918.927110574649	606.039818082776	302.410348330245	941.001932313178	523.348350918827	292.963498754724	893.048876168326	449.041094087752	281.384406072294	770.130758090677	365.301582539897	237.977999464726	807.299109741295	235.454318660648	282.831262773102	775.810317582529	401.389829379805	525.260769234706	703.124876062813	298.951975723842	587.300197090248	740.584258284255	203.942547115950	521.832096522590	602.224207705700	40.382121832409	490.187936205875	772.871320351673	96.446813906670	529.875531063236	683.793424466654	35.824335268835	566.444766314536	892.196162941725	43.195849108378	560.085058304467	655.091363081896	108.728608479227	330.330927177834	714.787817331605	90.503486406976	241.224213614403	813.589003690715	130.198243586428	254.843017751267	919.139894003400	52.020804896057	208.458077970820	657.252930733255	1101.968463723094	136.591583191167	720.346593400796	855.468091791405	65.271509878856	841.937780360478	1096.592785472165	736.526862454853	1046.666014132354	949.151150626396	680.776703066059	
19	24.009571428571	565.007050678687	1012.604423101416	471.091712637844	753.027311553217	1430.599744686380	271.226095203811	870.513378370043	1355.498886496850	419.204635947816	813.944051011295	1436.626773960582	601.423813464336	771.284820855588	1492.689449482547	426.742353319485	802.865195564670	938.583699624559	564.370478271524	760.976186122428	962.905368987960	294.205970055162	828.271823866246	734.164376188187	533.673856840960	742.937878401923	630.111986262638	597.248891552811	811.269427039390	574.508160301744	511.921411963198	804.786481578324	489.334327424958	516.533299482367	848.673934537369	788.922470806940	320.544332259600	810.755397945110	660.963657828091	241.950146241598	918.765466840261	606.198268460633	302.651991848346	941.006258352009	523.654898847241	293.186730622991	893.450787805714	449.257272164971	281.542054889694	771.096276615283	364.752370198669	238.105910821789	809.108873643602	235.125073858475	282.969706568753	775.235968967043	401.355928153131	525.285498874686	702.549051678019	298.943220097602	587.330694357945	739.960764384725	203.937934383384	521.840641912196	601.556969412355	40.370466685962	490.195330176849	772.212660014045	96.444677929225	529.881546071018	683.124780903187	35.813810509978	566.449482872757	891.540405422822	43.202810034601	560.086666843430	657.737121865075	107.315666447273	330.425763272180	717.581391083776	89.571928038314	241.309749519576	816.104432703584	129.951141022100	254.972011957217	922.208982160806	52.558395436429	208.555157757894	656.805258793395	1101.866663642928	136.947465201420	718.904016714859	855.076466261395	65.857447308700	842.388917073098	1096.539141055104	736.307989914312	1047.323316566837	949.605726247993	680.064182805261	
20	24.011214285714	564.885120008301	1012.685929033358	471.262817622023	752.930817764781	1430.568594666918	271.219684200732	870.520492095461	1355.427127227756	419.099933652932	814.152535255521	1436.603347168554	601.364165872287	771.355747630068	1492.666770476884	426.719204977452	802.791355508767	938.551476712008	564.326188204657	760.724309331559	962.929225187117	294.197656129862	827.945366812809	734.080092166839	533.604972204205	742.580575666531	630.099278170998	597.289074275944	810.780985027272	574.444174368058	511.904327325531	804.226138350839	489.297616252584	516.540948735320	848.423106091923	789.039615530576	320.638815375236	810.609091050106	661.012803504437	242.094957966765	918.592238642842	606.349417851790	302.897319619945	941.008631757318	523.962562161486	293.406633524002	893.851892439258	449.479889629083	281.708468392123	772.070533637175	364.206672713260	238.224683978260	810.920126600805	234.806872451498	283.108565099339	774.655858145202	401.322815757235	525.305351302951	701.976610916553	298.938038256909	587.368367233484	739.332707171473	203.938869151749	521.850872731467	600.885539014726	40.361974151790	490.200586528483	771.554550412743	96.447069172984	529.881214326350	682.451398692552	35.799127114432	566.445890847135	890.878704897632	43.209527216666	560.090566641539	660.390618457739	105.919117443530	330.519182238337	720.380911107476	88.653025380960	241.397643643934	818.629222258264	129.722465256427	255.105844166519	925.278361718540	53.105870066224	208.670422560097	656.354311620163	1101.767067025666	137.302504521298	717.469176467845	854.695620949453	66.436471337045	842.848824690367	1096.488222189468	736.086993913698	1047.976535131649	950.054395021101	679.347553732825	
21	24.012857142857	564.764621760580	1012.764817804765	471.431184148269	752.835606899990	1430.539058601384	271.210613310080	870.528625695595	1355.357624693702	418.991702738992	814.355840881628	1436.578036500799	601.300449983137	771.429457890466	1492.644055894709	426.688268253194	802.714296781858	938.518268666113	564.277193997347	760.476652185894	962.953911056340	294.184298999945	827.617494186107	733.996487527390	533.535053168624	742.222553256035	630.084990977709	597.323996560883	810.287105146436	574.381366862491	511.886905294290	803.662068739479	489.261566389299	516.549035189940	848.163374799759	789.144923220936	320.741665849348	810.459604968466	661.059576018670	242.237209008861	918.407861312984	606.493572469757	303.146247322940	941.009118775915	524.271338553954	293.623324888015	894.252825879109	449.708994410334	281.883743884600	773.053186209396	363.664783267581	238.334842967729	812.732166344666	234.500127325696	283.247853227709	774.070088434795	401.290433380161	525.320539841702	701.405994281737	298.935214873894	587.411665129493	738.699806295123	203.943814596959	521.862730994793	600.210171111951	40.357276830753	490.203954001986	770.896490239405	96.453331420620	529.875462691209	681.774085347605	35.781139806467	566.435102379980	890.211286206147	43.215970450528	560.096409482817	663.050980801275	104.540363619061	330.610258980714	723.186390027053	87.747252381792	241.487731302513	821.161705666035	129.511970936591	255.245162104904	928.347603256248	53.663521459235	208.804789036870	655.899768845620	1101.669817341898	137.656430102642	716.042206082639	854.325817171772	67.008554224967	843.316831744013	1096.439898687300	735.864310600931	1048.625573806985	950.497056718962	678.627124281068	
22	24.014500000000	564.645722704144	1012.841944467394	471.596118013873	752.741633455926	1430.510919298708	271.199020281400	870.537816677560	1355.290268292346	418.879984018093	814.555630147734	1436.551425728187	601.233038912734	771.505224580720	1492.621084109033	426.650864275849	802.634899021560	938.484506745620	564.226104949865	760.232918263944	962.978750066152	294.166806924326	827.288058373668	733.913719281664	533.464770425522	741.863292994085	630.070536032492	597.355471371826	809.788184457223	574.319288700086	511.869875452522	803.095007709044	489.225811846601	516.558166513636	847.897667337814	789.241329933959	320.849822330008	810.307689738421	661.104704442260	242.376702878897	918.213732694408	606.631365995199	303.398118346271	941.007471321211	524.580305542044	293.837319533953	894.653682472539	449.943668342029	282.066689965591	774.043159041443	363.126702684180	238.437365281805	814.543645310652	234.205021850419	283.387834803709	773.479372259046	401.258450952128	525.332331796324	700.835136272616	298.933219617605	587.457747011758	738.062219295957	203.950641505045	521.876252829853	599.531811699044	40.356704054808	490.206036079313	770.237880257841	96.461891259207	529.866294649222	681.095094446940	35.761637031513	566.420194819924	889.539819824369	43.222363727441	560.103256239820	665.716127615525	103.181547517951	330.697223867120	725.997255399764	86.855854096882	241.579223666112	823.698359212811	129.318470377363	255.390669513308	931.414831204558	54.231428008909	208.958761989342	655.441731041029	1101.575550296285	138.008225202475	714.623761487177	853.967601345654	67.573660757531	843.790790475537	1096.393502148025	735.640303991856	1049.270244657344	950.933965477010	677.903297772520	
